<svg width="128" height="128" viewBox="0 0 128 128" fill="none" xmlns="http://www.w3.org/2000/svg">
<g clip-path="url(#clip0_1_13)">
<path d="M82.9878 48.8937C82.8394 49.0452 82.6904 49.193 82.5347 49.3525C73.8612 57.985 62.9509 60.9286 58.1642 55.9189C55.9844 53.6367 55.4472 50.0956 56.3355 46.1033C42.0703 47.8118 28.8366 54.5506 18.9172 65.1558C8.99775 75.7611 3.01465 89.5687 2 104.196H125C124.139 91.7698 119.689 79.8821 112.211 70.0381C104.732 60.1946 94.5627 52.836 82.9878 48.8937ZM36.7678 81.3918C35.6235 81.3918 34.5051 81.0455 33.5537 80.3963C32.6023 79.7476 31.8609 78.8247 31.423 77.7455C30.9851 76.6663 30.8706 75.4789 31.0938 74.333C31.317 73.1871 31.868 72.1351 32.677 71.3088C33.4861 70.483 34.5169 69.9202 35.6391 69.6924C36.7613 69.4646 37.9245 69.5814 38.9816 70.0285C40.0387 70.4755 40.9422 71.2325 41.5779 72.2039C42.2136 73.1754 42.5529 74.317 42.5529 75.4852C42.5522 77.0515 41.9425 78.5537 40.8577 79.6612C39.7729 80.7687 38.3018 81.3912 36.7678 81.3918ZM86.0177 81.3918C84.8735 81.3918 83.7548 81.0455 82.8038 80.3963C81.8524 79.7476 81.1109 78.8247 80.6731 77.7455C80.2352 76.6663 80.1203 75.4789 80.3439 74.333C80.567 73.1871 81.1177 72.1351 81.9271 71.3088C82.7359 70.483 83.7668 69.9202 84.8891 69.6924C86.0115 69.4646 87.1746 69.5814 88.2316 70.0285C89.2886 70.4755 90.192 71.2325 90.8279 72.2039C91.4638 73.1754 91.8029 74.317 91.8029 75.4852C91.8024 77.0515 91.1926 78.5532 90.1079 79.6612C89.0232 80.7687 87.5518 81.3912 86.0177 81.3918Z" fill="#B52426"/>
<path d="M82.9877 48.8974C76.7025 46.7641 70.1216 45.6799 63.4984 45.6866C61.1048 45.6866 58.7134 45.8272 56.3354 46.1075C57.3899 41.3384 60.4721 35.9131 65.1918 31.2117C73.8638 22.5727 84.7773 19.6328 89.5639 24.6453C94.2664 29.5665 91.3091 40.3291 82.9877 48.8974Z" fill="#B52426"/>
</g>
<defs>
<clipPath id="clip0_1_13">
<rect width="128" height="128" fill="white"/>
</clipPath>
</defs>
</svg>
